# xmcd
#
# Track frame offsets: 
#        150
#        24667
#        43033
#        57346
#        70129
#        90413
#        105207
#        122397
#        137124
#        157370
#        171701
#        189490
#        208886
#        227711
#
# Disc length: 3277 seconds
#
# Revision: 0
# Processed by: cddbd v1.5.2PL0 Copyright (c) Steve Scherf et al.
# Submitted via: ExactAudioCopyFreeDBPlugin 1.0
#
DISCID=c60ccb0e
DTITLE=Al Basile - Woke Up In Memphis
DYEAR=2014
DGENRE=Blues
TTITLE0=Yesterday You Left
TTITLE1=Don't Make Me Beg
TTITLE2=When Things Get Tough
TTITLE3=One More Stone In The Pitcher
TTITLE4=I Woke Up In Memphis
TTITLE5=Jimmy and Johnny
TTITLE6=Saved By The Blues
TTITLE7=Nibblin' Through The Fence
TTITLE8=Make A Little Heaven
TTITLE9=Falling Stars
TTITLE10=Too Tough
TTITLE11=Big Like Elvis
TTITLE12=You Choose Me
TTITLE13=Masked Man
EXTD=
EXTT0=
EXTT1=
EXTT2=
EXTT3=
EXTT4=
EXTT5=
EXTT6=
EXTT7=
EXTT8=
EXTT9=
EXTT10=
EXTT11=
EXTT12=
EXTT13=
PLAYORDER=
